<?xml version="1.0" standalone="no"?>
<!DOCTYPE svg PUBLIC "-//W3C//DTD SVG 20010904//EN"
 "http://www.w3.org/TR/2001/REC-SVG-20010904/DTD/svg10.dtd">
<svg version="1.0" xmlns="http://www.w3.org/2000/svg"
 width="606.000000pt" height="606.000000pt" viewBox="0 0 606.000000 606.000000"
 preserveAspectRatio="xMidYMid meet">
<metadata>
Created by potrace 1.11, written by Peter Selinger 2001-2013
</metadata>
<g transform="translate(0.000000,606.000000) scale(0.100000,-0.100000)"
fill="#000000" stroke="none">
<path d="M3410 3035 l0 -1875 335 0 335 0 0 953 0 954 62 61 c134 133 313 189
524 163 112 -14 175 -34 239 -79 92 -63 153 -169 174 -302 7 -42 11 -365 11
-907 l0 -843 340 0 341 0 -4 908 c-3 1002 -3 995 -69 1187 -39 117 -68 173
-134 265 -134 187 -325 288 -607 321 -353 41 -639 -87 -861 -386 -14 -18 -15
62 -16 718 l0 737 -335 0 -335 0 0 -1875z"/>
<path d="M1230 3831 c-36 -9 -90 -30 -120 -46 -70 -39 -166 -134 -215 -212
-21 -35 -42 -63 -46 -63 -5 0 -9 21 -9 48 0 26 -3 91 -7 145 l-6 97 -294 0
-293 0 0 -1320 0 -1320 310 0 310 0 0 990 c0 961 1 992 19 1029 76 147 280
161 344 23 l22 -47 3 -998 3 -997 297 2 297 3 5 1018 5 1018 41 39 c49 45 109
65 173 56 93 -13 141 -68 160 -186 7 -42 11 -395 11 -1007 l0 -943 305 0 305
0 0 1023 c0 880 -2 1034 -16 1112 -56 323 -188 489 -430 540 -228 48 -434 -29
-580 -219 l-30 -39 -29 59 c-33 66 -95 134 -152 163 -101 51 -259 65 -383 32z"/>
</g>
</svg>
